<svg width="21" height="20" viewBox="0 0 21 20" fill="none" xmlns="http://www.w3.org/2000/svg">
<path fill-rule="evenodd" clip-rule="evenodd" d="M10.7625 8.12912L18.3111 0.938203C18.4574 0.798968 18.6311 0.688541 18.8222 0.613225C19.0133 0.537909 19.2181 0.499179 19.4249 0.499247C19.6317 0.499315 19.8365 0.538179 20.0275 0.613622C20.2186 0.689064 20.3921 0.799608 20.5383 0.938939C20.6845 1.07827 20.8005 1.24366 20.8796 1.42567C20.9586 1.60768 20.9993 1.80274 20.9992 1.99971C20.9992 2.19669 20.9584 2.39172 20.8791 2.57368C20.7999 2.75564 20.6839 2.92095 20.5376 3.06018L12.9889 10.2496L20.5391 17.4391C20.6853 17.5784 20.8013 17.7438 20.8803 17.9258C20.9594 18.1078 21.0001 18.3029 21 18.4998C20.9999 18.6968 20.9591 18.8918 20.8799 19.0738C20.8007 19.2558 20.6846 19.4211 20.5383 19.5603C20.392 19.6995 20.2184 19.81 20.0273 19.8853C19.8362 19.9606 19.6314 19.9993 19.4246 19.9993C19.2178 19.9992 19.013 19.9603 18.8219 19.8849C18.6309 19.8094 18.4573 19.6989 18.3111 19.5596L10.7625 12.3701L3.21385 19.561C3.06755 19.7003 2.8939 19.8107 2.7028 19.886C2.5117 19.9613 2.30689 20.0001 2.10007 20C1.89326 19.9999 1.68848 19.9611 1.49743 19.8856C1.30639 19.8102 1.13281 19.6996 0.986621 19.5603C0.691375 19.2789 0.525588 18.8973 0.525733 18.4995C0.525805 18.3026 0.566612 18.1075 0.645824 17.9256C0.725036 17.7436 0.841101 17.5783 0.987393 17.4391L8.53603 10.2496L0.460888 2.5602C0.165642 2.27881 -0.000144691 1.89724 9.47544e-08 1.49943C0.000144881 1.10162 0.166209 0.720154 0.46166 0.438957C0.757111 0.15776 1.15775 -0.000137792 1.57543 9.02266e-08C1.99312 0.000137972 2.39364 0.1583 2.68889 0.439692L10.7625 8.12912Z" fill="black"/>
</svg>
